<?xml version="1.0" encoding="UTF-8"?>
<!DOCTYPE svg PUBLIC "-//W3C//DTD SVG 1.1//EN" "http://www.w3.org/Graphics/SVG/1.1/DTD/svg11.dtd">
<!-- Creator: CorelDRAW 2018 (64-Bit) -->
<svg xmlns="http://www.w3.org/2000/svg" xml:space="preserve" width="155px" height="40px" version="1.1" style="shape-rendering:geometricPrecision; text-rendering:geometricPrecision; image-rendering:optimizeQuality; fill-rule:evenodd; clip-rule:evenodd"
viewBox="0 0 12.41 3.2"
 xmlns:xlink="http://www.w3.org/1999/xlink">
 <defs>
  <style type="text/css">
   <![CDATA[
    .fil2 {fill:#008DD2}
    .fil0 {fill:#125FA9;fill-rule:nonzero}
    .fil1 {fill:#008DD2;fill-rule:nonzero}
   ]]>
  </style>
 </defs>
 <g id="Слой_x0020_1">
  <metadata id="CorelCorpID_0Corel-Layer"/>
  <g id="_1846816736320">
   <path class="fil0" d="M0.21 2.06c0,-0.01 -0.02,-0.01 -0.03,-0.01 -0.02,0 -0.04,0.01 -0.04,0.03 -0.01,0.02 -0.01,0.03 -0.01,0.03 0,0.01 0,0.03 0,0.04 0.01,0.02 0.02,0.03 0.03,0.05 0.04,0.06 0.09,0.1 0.16,0.12 0.07,0.02 0.13,0.03 0.2,0.03 0.02,0 0.05,0 0.1,0 0.04,-0.01 0.09,-0.02 0.14,-0.04 0.04,-0.02 0.08,-0.04 0.13,-0.06 0.04,-0.03 0.09,-0.06 0.14,-0.1 0.05,-0.05 0.1,-0.1 0.15,-0.15 0.05,-0.06 0.1,-0.13 0.15,-0.21 0.06,-0.09 0.11,-0.18 0.16,-0.27 0.05,-0.1 0.09,-0.18 0.12,-0.27 0.04,-0.08 0.07,-0.15 0.09,-0.22 0.03,-0.06 0.05,-0.11 0.05,-0.13 -0.01,-0.02 -0.02,-0.03 -0.03,-0.05 -0.01,-0.01 -0.03,-0.03 -0.04,-0.04 -0.06,-0.07 -0.11,-0.12 -0.16,-0.16 -0.06,-0.04 -0.09,-0.07 -0.12,-0.09 -0.06,-0.05 -0.13,-0.09 -0.21,-0.13 -0.08,-0.04 -0.16,-0.06 -0.24,-0.06 -0.01,0 -0.03,0 -0.06,0 -0.02,0.01 -0.05,0.01 -0.08,0.02 -0.03,0.01 -0.06,0.03 -0.09,0.05 -0.02,0.02 -0.05,0.05 -0.07,0.09 0,0.02 -0.01,0.03 -0.01,0.05 -0.01,0.03 -0.01,0.05 -0.01,0.09 0,0.03 0.01,0.08 0.02,0.14 0.02,0.05 0.06,0.11 0.12,0.17 0.04,0.03 0.07,0.06 0.11,0.09 0.04,0.03 0.08,0.05 0.13,0.07 0.05,0.02 0.09,0.04 0.14,0.05 0.05,0.01 0.09,0.02 0.13,0.02 0.04,0 0.06,0 0.09,-0.01 0.02,-0.01 0.05,-0.02 0.1,-0.06l0.02 -0.01c0,-0.01 0,-0.01 0.01,-0.02 0.01,-0.01 0.02,-0.01 0.03,-0.01 0.01,0 0.01,0 0.01,0.01 0.01,0.01 0.01,0.01 0.01,0.02 0,0.01 -0.01,0.02 -0.02,0.03 -0.01,0.02 -0.02,0.03 -0.03,0.04 -0.03,0.02 -0.07,0.05 -0.12,0.07 -0.05,0.03 -0.12,0.04 -0.21,0.04 -0.05,0 -0.11,0 -0.17,-0.02 -0.05,-0.01 -0.11,-0.03 -0.16,-0.05 -0.05,-0.03 -0.1,-0.06 -0.15,-0.09 -0.04,-0.04 -0.08,-0.08 -0.11,-0.13 -0.01,-0.02 -0.02,-0.06 -0.04,-0.1 -0.02,-0.04 -0.03,-0.09 -0.03,-0.15 0,-0.07 0.01,-0.13 0.04,-0.18 0.02,-0.05 0.04,-0.08 0.05,-0.1 0.03,-0.04 0.07,-0.09 0.11,-0.12 0.05,-0.04 0.1,-0.07 0.15,-0.09 0.06,-0.03 0.11,-0.04 0.17,-0.06 0.06,-0.01 0.11,-0.02 0.16,-0.02 0.03,0 0.06,0.01 0.11,0.01 0.04,0 0.09,0.02 0.15,0.04 0.07,0.02 0.14,0.06 0.2,0.1 0.06,0.04 0.11,0.08 0.15,0.12 0.05,0.04 0.08,0.08 0.11,0.12 0.03,0.03 0.05,0.06 0.06,0.08 0.07,0.1 0.12,0.21 0.16,0.32 0.04,0.11 0.08,0.23 0.1,0.35 0.03,0.12 0.05,0.24 0.06,0.36 0.01,0.12 0.02,0.24 0.02,0.35l0.2 -0.58c0.03,-0.08 0.06,-0.17 0.09,-0.26 0.03,-0.09 0.07,-0.18 0.11,-0.26 0.04,-0.09 0.09,-0.17 0.14,-0.26 0.05,-0.08 0.11,-0.15 0.17,-0.21 0.06,-0.05 0.13,-0.1 0.2,-0.14 0.08,-0.04 0.15,-0.06 0.24,-0.06 0.03,0 0.06,0 0.09,0.01 0.03,0.01 0.05,0.03 0.07,0.05 0.01,0.01 0.01,0.02 0.02,0.03 0.01,0.02 0.02,0.04 0.02,0.06 0,0.02 -0.01,0.04 -0.02,0.06 -0.01,0.02 -0.02,0.03 -0.04,0.05 -0.01,0.01 -0.02,0.01 -0.04,0.02 -0.01,0.01 -0.03,0.01 -0.04,0.01 -0.01,0 -0.02,0 -0.03,0 -0.03,0 -0.05,0 -0.07,-0.02 -0.02,-0.01 -0.04,-0.02 -0.05,-0.03 0,-0.01 -0.01,-0.02 -0.01,-0.03 -0.01,0 -0.01,-0.01 -0.01,-0.02 0,-0.02 0,-0.03 0.01,-0.03 0.01,-0.01 0.01,-0.02 0.02,-0.03l0.02 -0.01c0,0 0,0 0.01,0 0.01,-0.01 0.01,-0.01 0.01,-0.02 0,-0.01 -0.01,-0.02 -0.02,-0.03 -0.02,0 -0.03,0 -0.03,0 -0.03,0 -0.05,0.01 -0.09,0.02 -0.03,0.01 -0.06,0.04 -0.1,0.07 -0.11,0.1 -0.24,0.31 -0.39,0.62 -0.05,0.11 -0.09,0.21 -0.14,0.32 -0.05,0.1 -0.09,0.2 -0.12,0.29 -0.04,0.09 -0.07,0.17 -0.1,0.24 -0.02,0.07 -0.04,0.12 -0.05,0.16 -0.02,0.04 -0.03,0.09 -0.04,0.13 -0.01,0.05 -0.02,0.1 -0.03,0.14l0 0.03c-0.01,0 -0.01,0.01 -0.02,0.03 0,0.01 -0.02,0.02 -0.04,0.02 -0.01,0 -0.02,0 -0.03,-0.01 -0.01,0 -0.01,-0.02 -0.01,-0.04 0,-0.01 0,-0.03 0.01,-0.03l0 -0.03c0.01,-0.03 0.02,-0.06 0.02,-0.08 0,-0.03 0.01,-0.06 0.01,-0.09 0,-0.03 -0.01,-0.09 -0.02,-0.16 -0.01,-0.07 -0.02,-0.15 -0.05,-0.25 -0.02,-0.09 -0.05,-0.19 -0.09,-0.29 -0.04,-0.11 -0.09,-0.21 -0.15,-0.31 -0.02,-0.03 -0.04,-0.05 -0.06,-0.08 -0.02,-0.03 -0.04,-0.05 -0.06,-0.08 -0.03,0.07 -0.06,0.14 -0.09,0.21 -0.03,0.07 -0.06,0.14 -0.09,0.21 -0.05,0.1 -0.09,0.2 -0.14,0.28 -0.04,0.09 -0.08,0.16 -0.12,0.23 -0.04,0.06 -0.09,0.12 -0.13,0.17 -0.04,0.05 -0.08,0.09 -0.12,0.13 -0.09,0.07 -0.18,0.13 -0.28,0.16 -0.09,0.03 -0.2,0.05 -0.31,0.05 -0.1,0 -0.18,-0.01 -0.25,-0.03 -0.06,-0.02 -0.11,-0.05 -0.15,-0.07 -0.03,-0.03 -0.05,-0.05 -0.07,-0.07 -0.02,-0.03 -0.03,-0.05 -0.04,-0.07 -0.01,-0.03 -0.02,-0.05 -0.02,-0.07 -0.01,-0.02 -0.01,-0.04 -0.01,-0.05 0,-0.07 0.02,-0.12 0.06,-0.17 0.04,-0.04 0.09,-0.07 0.16,-0.07 0.04,0 0.07,0.01 0.09,0.02 0.02,0.02 0.04,0.03 0.06,0.05 0.01,0.02 0.02,0.03 0.02,0.05 0.01,0.02 0.01,0.04 0.01,0.05 0,0.03 0,0.05 -0.01,0.06 -0.01,0.02 -0.02,0.03 -0.03,0.04 -0.02,0.01 -0.03,0.02 -0.04,0.02 -0.02,0.01 -0.03,0.01 -0.03,0.01 -0.02,0 -0.03,0 -0.04,-0.01 -0.01,-0.01 -0.01,-0.01 -0.02,-0.02l-0.02 -0.02zm4.51 0.27c0.01,0 0.02,0 0.02,0 0.01,0 0.02,0.01 0.02,0.02 0,0.01 -0.02,0.02 -0.05,0.02 -0.01,0 -0.03,0 -0.06,-0.01 -0.03,0 -0.06,-0.02 -0.09,-0.04 -0.03,-0.01 -0.05,-0.04 -0.08,-0.07 -0.02,-0.04 -0.04,-0.09 -0.04,-0.16 0,-0.01 0.01,-0.03 0.01,-0.06 0,-0.03 0.01,-0.06 0.02,-0.09 0.01,-0.02 0.01,-0.04 0.03,-0.07 0.01,-0.03 0.03,-0.06 0.05,-0.09 0.02,-0.03 0.04,-0.07 0.07,-0.11 0.03,-0.03 0.06,-0.07 0.1,-0.1 0.04,-0.03 0.07,-0.06 0.11,-0.08 0.04,-0.02 0.08,-0.04 0.12,-0.06 0.04,-0.02 0.08,-0.04 0.13,-0.05 0.04,-0.01 0.08,-0.02 0.13,-0.02 0.05,0 0.11,0.01 0.17,0.03 0.05,0.02 0.1,0.06 0.14,0.1 0.02,0.02 0.04,0.05 0.07,0.1 0.02,0.05 0.04,0.12 0.04,0.2 0,0.06 -0.01,0.12 -0.03,0.17 -0.02,0.06 -0.04,0.11 -0.07,0.16 -0.03,0.05 -0.06,0.1 -0.1,0.15 -0.04,0.04 -0.08,0.08 -0.12,0.12 -0.05,0.04 -0.11,0.08 -0.17,0.12 -0.06,0.03 -0.12,0.06 -0.19,0.09 -0.06,0.02 -0.13,0.04 -0.2,0.06 -0.07,0.01 -0.13,0.02 -0.2,0.02 -0.02,0 -0.04,0 -0.07,-0.01 -0.04,0 -0.07,0 -0.11,-0.01 -0.04,-0.01 -0.08,-0.02 -0.13,-0.04 -0.04,-0.02 -0.09,-0.04 -0.13,-0.07 -0.02,-0.01 -0.05,-0.03 -0.08,-0.05 -0.03,-0.03 -0.05,-0.06 -0.08,-0.09 -0.03,-0.04 -0.05,-0.09 -0.07,-0.14 -0.02,-0.05 -0.03,-0.11 -0.03,-0.18 0,-0.03 0.01,-0.09 0.03,-0.15 0.01,-0.07 0.05,-0.15 0.1,-0.23 0.05,-0.07 0.11,-0.14 0.17,-0.19 0.07,-0.05 0.14,-0.1 0.22,-0.14 0.07,-0.04 0.15,-0.07 0.23,-0.1 0.09,-0.02 0.17,-0.05 0.25,-0.07 -0.07,-0.02 -0.14,-0.04 -0.2,-0.08 -0.06,-0.03 -0.11,-0.08 -0.15,-0.15 -0.01,-0.01 -0.02,-0.03 -0.03,-0.06 -0.01,-0.03 -0.02,-0.07 -0.02,-0.1 0,-0.01 0,-0.02 0,-0.04 0,-0.01 0.01,-0.03 0.01,-0.05 0.02,-0.03 0.04,-0.08 0.07,-0.13 0.03,-0.05 0.09,-0.1 0.16,-0.15 0.02,-0.02 0.06,-0.04 0.1,-0.07 0.04,-0.02 0.09,-0.04 0.14,-0.06 0.06,-0.02 0.12,-0.03 0.19,-0.05 0.06,-0.01 0.14,-0.01 0.22,-0.01 0.01,0 0.03,0 0.06,0 0.03,0 0.06,0 0.09,0.01 0.04,0 0.08,0.01 0.12,0.02 0.04,0.01 0.08,0.03 0.12,0.05 0.04,0.02 0.07,0.04 0.09,0.07 0.02,0.02 0.04,0.05 0.06,0.07 0.01,0.03 0.02,0.05 0.02,0.08 0.01,0.02 0.01,0.04 0.01,0.06 0,0.07 -0.02,0.12 -0.06,0.17 -0.05,0.05 -0.1,0.07 -0.17,0.07 -0.03,0 -0.06,0 -0.08,-0.01 -0.02,-0.02 -0.04,-0.03 -0.05,-0.04 -0.01,-0.02 -0.02,-0.03 -0.03,-0.05 0,-0.02 0,-0.03 0,-0.04 0,-0.04 0.01,-0.07 0.04,-0.09 0.02,-0.03 0.05,-0.04 0.09,-0.04 0.01,0 0.02,0 0.03,0.01 0,0 0.01,0 0.02,0.01l0.01 0.01c0.02,0.01 0.03,0.02 0.04,0.02 0.01,0 0.02,-0.01 0.03,-0.03 0.02,-0.01 0.02,-0.03 0.02,-0.06 0,-0.01 0,-0.02 -0.01,-0.04 0,-0.02 -0.01,-0.04 -0.03,-0.06 -0.04,-0.05 -0.09,-0.08 -0.15,-0.1 -0.07,-0.02 -0.13,-0.03 -0.18,-0.03 -0.03,0 -0.06,0 -0.1,0.01 -0.03,0 -0.07,0.01 -0.12,0.02 -0.04,0.02 -0.08,0.04 -0.13,0.07 -0.05,0.02 -0.1,0.06 -0.14,0.11 -0.08,0.08 -0.13,0.15 -0.16,0.23 -0.03,0.07 -0.04,0.13 -0.04,0.17 0,0.02 0,0.04 0,0.06 0.01,0.02 0.02,0.05 0.03,0.08 0.03,0.05 0.07,0.08 0.11,0.09 0.04,0.02 0.09,0.02 0.14,0.02 0.05,-0.01 0.1,-0.02 0.14,-0.03 0.05,-0.01 0.1,-0.01 0.15,-0.01 0.02,0 0.04,0 0.07,0 0.02,0 0.04,0.01 0.06,0.03 0.01,0 0.01,0.01 0.01,0.01 0,0.01 0.01,0.01 0.01,0.02 -0.01,0.01 -0.01,0.02 -0.03,0.04 -0.01,0.01 -0.02,0.01 -0.03,0.02 -0.02,0 -0.03,0 -0.05,0.01 -0.02,0 -0.05,0 -0.08,0 -0.05,0 -0.1,0 -0.14,0 -0.05,-0.01 -0.09,-0.01 -0.14,-0.02 -0.01,0 -0.03,0.01 -0.05,0.01 -0.03,0 -0.05,0 -0.08,0.01 -0.07,0.02 -0.13,0.04 -0.18,0.07 -0.06,0.04 -0.11,0.07 -0.16,0.12 -0.05,0.04 -0.09,0.09 -0.13,0.14 -0.04,0.05 -0.07,0.1 -0.1,0.16 -0.06,0.1 -0.09,0.2 -0.12,0.29 -0.02,0.09 -0.03,0.15 -0.03,0.19 0,0.05 0.01,0.1 0.03,0.15 0.02,0.05 0.04,0.09 0.08,0.12 0.02,0.02 0.06,0.04 0.1,0.06 0.05,0.02 0.11,0.03 0.19,0.03 0.07,0 0.13,-0.01 0.18,-0.02 0.05,-0.02 0.1,-0.04 0.14,-0.06 0.04,-0.02 0.07,-0.05 0.1,-0.07 0.03,-0.02 0.05,-0.04 0.06,-0.06 0.05,-0.05 0.09,-0.1 0.13,-0.16 0.04,-0.05 0.07,-0.11 0.1,-0.16 0.03,-0.05 0.05,-0.1 0.07,-0.13 0.02,-0.04 0.03,-0.07 0.04,-0.08 0.02,-0.06 0.04,-0.1 0.05,-0.14 0.01,-0.03 0.01,-0.06 0.01,-0.09 0,-0.03 0,-0.05 0,-0.07 -0.01,-0.02 -0.02,-0.04 -0.02,-0.04 -0.02,-0.04 -0.05,-0.07 -0.08,-0.08 -0.03,-0.01 -0.07,-0.02 -0.11,-0.02 -0.02,0 -0.05,0 -0.08,0.01 -0.03,0.01 -0.07,0.02 -0.11,0.04 -0.03,0.01 -0.07,0.04 -0.12,0.08 -0.06,0.04 -0.11,0.09 -0.16,0.16 0,0.01 -0.01,0.02 -0.03,0.05 -0.02,0.03 -0.04,0.06 -0.05,0.1 -0.02,0.04 -0.04,0.08 -0.06,0.13 -0.01,0.05 -0.02,0.1 -0.02,0.14 0,0.07 0.01,0.11 0.04,0.14 0.03,0.02 0.05,0.04 0.08,0.05l0.02 0.01zm6 -1.99c0.04,-0.01 0.07,-0.01 0.1,-0.02 0.03,-0.01 0.06,-0.02 0.1,-0.04 0,0 0.01,-0.01 0.03,-0.02 0.01,-0.01 0.02,-0.02 0.03,-0.03 0.03,-0.02 0.05,-0.04 0.06,-0.07 0.01,-0.02 0.02,-0.04 0.02,-0.06 0,-0.01 -0.01,-0.02 -0.01,-0.03 -0.01,0 -0.02,-0.01 -0.05,-0.01 -0.03,0 -0.08,0.03 -0.13,0.09 -0.04,0.03 -0.08,0.07 -0.1,0.11 -0.02,0.03 -0.04,0.06 -0.05,0.08zm-0.25 0.39c-0.04,0.07 -0.08,0.15 -0.12,0.22 -0.04,0.08 -0.08,0.15 -0.11,0.23l-0.03 0.05c-0.06,0.13 -0.12,0.26 -0.19,0.39 -0.06,0.12 -0.13,0.25 -0.19,0.38 -0.1,0.18 -0.19,0.33 -0.27,0.45 -0.07,0.12 -0.14,0.21 -0.2,0.28 -0.02,0.03 -0.05,0.06 -0.07,0.09 -0.03,0.02 -0.06,0.05 -0.08,0.08 -0.13,0.11 -0.25,0.18 -0.39,0.23 -0.13,0.05 -0.28,0.07 -0.45,0.07 -0.02,0 -0.06,0 -0.12,0 -0.05,-0.01 -0.11,-0.02 -0.18,-0.04 -0.03,-0.01 -0.07,-0.02 -0.12,-0.05 -0.05,-0.02 -0.1,-0.05 -0.15,-0.1 -0.05,-0.04 -0.09,-0.1 -0.13,-0.17 -0.03,-0.07 -0.05,-0.15 -0.05,-0.25 0,-0.03 0,-0.07 0.01,-0.11 0.01,-0.04 0.02,-0.09 0.04,-0.14 0.02,-0.05 0.05,-0.1 0.08,-0.15 0.04,-0.06 0.08,-0.11 0.14,-0.16 0.03,-0.03 0.07,-0.06 0.11,-0.09 0.05,-0.04 0.11,-0.08 0.18,-0.11 0.07,-0.03 0.15,-0.06 0.24,-0.09 0.09,-0.02 0.18,-0.03 0.29,-0.03 0.06,0 0.11,0 0.16,0.01 0.05,0.01 0.09,0.03 0.12,0.04 0.04,0.02 0.07,0.04 0.09,0.06 0.02,0.02 0.04,0.05 0.06,0.07 0.01,0.01 0.03,0.04 0.05,0.08 0.02,0.04 0.03,0.09 0.03,0.14 0,0.02 -0.01,0.06 -0.01,0.1 -0.01,0.04 -0.04,0.09 -0.07,0.14 -0.04,0.06 -0.09,0.11 -0.14,0.16 -0.06,0.04 -0.11,0.08 -0.18,0.11 -0.06,0.03 -0.12,0.05 -0.19,0.07 -0.07,0.01 -0.14,0.02 -0.2,0.02 -0.04,0 -0.07,0 -0.1,-0.01 -0.02,0 -0.04,-0.01 -0.06,-0.01 -0.01,0 -0.03,-0.01 -0.06,-0.02 -0.03,-0.01 -0.05,-0.03 -0.08,-0.05 -0.03,-0.02 -0.06,-0.05 -0.08,-0.08 -0.02,-0.04 -0.03,-0.08 -0.03,-0.13 0,-0.02 0,-0.04 0.01,-0.08 0.01,-0.03 0.03,-0.07 0.06,-0.1 0.02,-0.03 0.04,-0.04 0.06,-0.04 0.02,0 0.03,0 0.03,0.02 0,0.01 -0.01,0.02 -0.03,0.03l-0.02 0.03c-0.01,0.02 -0.02,0.03 -0.03,0.05 -0.01,0.02 -0.02,0.05 -0.02,0.07 0,0.05 0.01,0.08 0.03,0.12 0.02,0.03 0.06,0.06 0.11,0.09 0.04,0.03 0.11,0.04 0.2,0.04 0.02,0 0.04,0 0.06,0 0.03,0 0.05,-0.01 0.08,-0.01 0.03,-0.01 0.07,-0.02 0.1,-0.04 0.04,-0.01 0.07,-0.03 0.11,-0.06 0.04,-0.03 0.08,-0.07 0.11,-0.11 0.03,-0.03 0.05,-0.07 0.07,-0.11 0.02,-0.03 0.03,-0.07 0.03,-0.1 0.01,-0.03 0.01,-0.06 0.01,-0.08 0,-0.01 0,-0.03 -0.01,-0.06 0,-0.04 -0.01,-0.07 -0.02,-0.1 -0.04,-0.08 -0.09,-0.12 -0.15,-0.15 -0.06,-0.03 -0.13,-0.04 -0.2,-0.04 -0.08,0 -0.14,0.01 -0.19,0.02 -0.05,0.02 -0.09,0.03 -0.12,0.04 -0.06,0.03 -0.13,0.07 -0.18,0.12 -0.06,0.05 -0.11,0.11 -0.15,0.17 -0.04,0.06 -0.07,0.13 -0.09,0.2 -0.02,0.08 -0.03,0.15 -0.03,0.23 0,0.05 0,0.11 0.01,0.15 0.02,0.05 0.03,0.09 0.05,0.12 0.02,0.03 0.03,0.06 0.05,0.08 0.02,0.03 0.04,0.05 0.06,0.06 0.02,0.02 0.04,0.03 0.07,0.05 0.03,0.02 0.06,0.04 0.1,0.05 0.04,0.02 0.08,0.04 0.13,0.05 0.05,0.01 0.11,0.01 0.17,0.01 0.15,0 0.29,-0.03 0.42,-0.1 0.13,-0.08 0.24,-0.17 0.33,-0.29 0.02,-0.04 0.06,-0.09 0.09,-0.14 0.03,-0.06 0.06,-0.12 0.09,-0.2 0.02,-0.07 0.04,-0.16 0.06,-0.25 0.02,-0.1 0.03,-0.2 0.03,-0.32 0,-0.04 -0.01,-0.11 -0.01,-0.19 -0.01,-0.09 -0.02,-0.18 -0.05,-0.28 -0.03,-0.11 -0.06,-0.22 -0.12,-0.33 -0.05,-0.12 -0.12,-0.23 -0.21,-0.34 -0.06,-0.06 -0.12,-0.12 -0.18,-0.17 -0.05,-0.04 -0.11,-0.08 -0.16,-0.11 -0.06,-0.03 -0.11,-0.05 -0.15,-0.06 -0.05,-0.01 -0.09,-0.02 -0.13,-0.02 -0.02,0 -0.04,0 -0.07,0.01 -0.03,0 -0.06,0.01 -0.09,0.02 -0.03,0.01 -0.06,0.03 -0.1,0.06 -0.03,0.03 -0.05,0.06 -0.07,0.11 -0.02,0.03 -0.02,0.06 -0.03,0.09 0,0.03 0,0.04 0,0.06 0,0.02 0,0.05 0.01,0.08 0.01,0.04 0.02,0.08 0.05,0.13 0.03,0.06 0.06,0.1 0.11,0.15 0.05,0.04 0.1,0.08 0.15,0.12 0.06,0.03 0.12,0.05 0.18,0.07 0.06,0.02 0.13,0.03 0.19,0.03 0.04,0 0.09,-0.01 0.14,-0.02 0.05,-0.01 0.1,-0.04 0.13,-0.07 0.01,-0.01 0.01,-0.01 0.02,-0.02 0,-0.01 0.01,-0.02 0.02,-0.03l0.01 -0.03c0.01,-0.02 0.02,-0.02 0.03,-0.02 0.01,0 0.02,0 0.02,0.01 0,0.01 0,0.02 0,0.02 0,0.01 -0.01,0.04 -0.02,0.07 -0.02,0.03 -0.04,0.06 -0.07,0.1 -0.02,0.01 -0.04,0.03 -0.06,0.04 -0.03,0.02 -0.06,0.04 -0.09,0.05 -0.04,0.02 -0.08,0.03 -0.12,0.04 -0.05,0.01 -0.09,0.02 -0.15,0.02 -0.08,0 -0.17,-0.02 -0.26,-0.05 -0.08,-0.03 -0.16,-0.07 -0.22,-0.13 -0.06,-0.05 -0.11,-0.12 -0.15,-0.19 -0.03,-0.08 -0.05,-0.16 -0.05,-0.24 0,-0.07 0.01,-0.12 0.03,-0.17 0.01,-0.04 0.03,-0.08 0.04,-0.1 0.01,-0.03 0.04,-0.06 0.07,-0.1 0.03,-0.04 0.07,-0.08 0.12,-0.11 0.04,-0.04 0.1,-0.07 0.17,-0.09 0.07,-0.02 0.15,-0.03 0.24,-0.03 0.09,0 0.17,0.01 0.26,0.04 0.08,0.03 0.16,0.07 0.23,0.12 0.08,0.05 0.14,0.11 0.2,0.17 0.06,0.07 0.11,0.14 0.15,0.22 0.02,0.03 0.04,0.07 0.06,0.12 0.02,0.05 0.04,0.1 0.05,0.17 0.02,0.06 0.03,0.13 0.04,0.2 0.02,0.08 0.02,0.16 0.02,0.25 0,0.09 0,0.16 -0.01,0.24 -0.01,0.07 -0.02,0.14 -0.04,0.21 -0.01,0.07 -0.03,0.14 -0.05,0.21 -0.02,0.07 -0.05,0.14 -0.07,0.21 0.02,-0.02 0.04,-0.04 0.05,-0.06 0.02,-0.03 0.03,-0.05 0.05,-0.08 0.02,-0.02 0.03,-0.05 0.05,-0.09 0.02,-0.04 0.04,-0.08 0.07,-0.13 0.02,-0.04 0.03,-0.08 0.05,-0.12 0.02,-0.04 0.04,-0.08 0.06,-0.12l0.1 -0.24c0.04,-0.08 0.08,-0.16 0.12,-0.24 0.04,-0.08 0.09,-0.17 0.13,-0.25 0.04,-0.08 0.08,-0.15 0.13,-0.23 0.04,-0.08 0.09,-0.15 0.14,-0.22l-0.34 -0.03c-0.03,0 -0.06,0 -0.1,-0.01 -0.04,0 -0.08,0 -0.12,0 -0.04,0.01 -0.08,0.01 -0.12,0.02 -0.03,0 -0.06,0.02 -0.09,0.04 -0.01,0.01 -0.03,0.02 -0.04,0.03 -0.01,0.02 -0.02,0.04 -0.03,0.08l-0.02 0.04c0,0.01 -0.01,0.02 -0.02,0.02 -0.01,0 -0.02,0 -0.02,-0.01 -0.01,0 -0.01,-0.01 -0.01,-0.02 0,-0.01 0,-0.02 0.01,-0.04 0,-0.02 0.01,-0.03 0.01,-0.03 0.01,-0.06 0.03,-0.1 0.06,-0.14 0.02,-0.04 0.05,-0.07 0.08,-0.1 0.03,-0.03 0.06,-0.05 0.09,-0.06 0.02,-0.02 0.05,-0.03 0.07,-0.04 0.02,-0.01 0.04,-0.01 0.07,-0.02 0.02,0 0.04,-0.01 0.07,-0.01 0.03,0 0.06,-0.01 0.09,0 0.03,0 0.07,0 0.12,0l0.39 0.03c0.07,-0.1 0.14,-0.18 0.21,-0.25 0.06,-0.06 0.12,-0.09 0.18,-0.09 0.04,0 0.07,0.01 0.08,0.04 0.02,0.02 0.03,0.05 0.03,0.09 0,0.01 0,0.02 0,0.03 0,0.02 -0.01,0.04 -0.02,0.06 -0.01,0.02 -0.02,0.05 -0.04,0.08 -0.02,0.03 -0.05,0.06 -0.08,0.09 -0.03,0.04 -0.07,0.07 -0.12,0.1 -0.05,0.03 -0.1,0.05 -0.16,0.08 -0.03,0 -0.06,0.01 -0.08,0.02 -0.02,0 -0.04,0 -0.07,0.01l-0.08 0.13z"/>
   <path class="fil1" d="M3.29 1.84c0.01,-0.02 0.03,-0.05 0.05,-0.1 0.02,-0.04 0.04,-0.09 0.07,-0.14 0.02,-0.05 0.04,-0.1 0.05,-0.15 0.02,-0.05 0.02,-0.09 0.02,-0.11 0,-0.02 0,-0.04 -0.01,-0.06 -0.02,-0.01 -0.03,-0.02 -0.05,-0.02 -0.02,0 -0.03,0.01 -0.05,0.02 -0.01,0.01 -0.03,0.02 -0.05,0.04 -0.03,0.04 -0.07,0.1 -0.12,0.18 -0.05,0.09 -0.1,0.19 -0.16,0.3 -0.02,0.05 -0.05,0.11 -0.08,0.17 -0.02,0.06 -0.05,0.11 -0.07,0.17 0,0.01 -0.01,0.02 -0.02,0.05 -0.01,0.03 -0.01,0.05 -0.01,0.08 0,0.02 0,0.04 0.01,0.05 0.02,0.01 0.03,0.01 0.04,0.01 0.01,0 0.03,-0.01 0.05,-0.02 0.02,-0.02 0.04,-0.03 0.06,-0.06 0.02,-0.02 0.04,-0.05 0.07,-0.08 0.02,-0.04 0.05,-0.08 0.07,-0.11 0.03,-0.04 0.05,-0.08 0.07,-0.12 0.03,-0.04 0.04,-0.07 0.06,-0.1zm0.02 0.08c-0.02,0.03 -0.04,0.07 -0.06,0.1 -0.03,0.04 -0.05,0.08 -0.07,0.11 -0.03,0.04 -0.05,0.07 -0.08,0.11 -0.03,0.03 -0.05,0.06 -0.08,0.09 -0.01,0 -0.02,0.01 -0.04,0.03 -0.03,0.02 -0.05,0.03 -0.08,0.03 -0.01,0 -0.02,-0.01 -0.04,-0.01 -0.01,0 -0.02,-0.01 -0.03,-0.02 -0.04,-0.01 -0.06,-0.04 -0.07,-0.07 -0.02,-0.03 -0.03,-0.06 -0.04,-0.09 -0.01,-0.03 -0.01,-0.06 -0.01,-0.08 0,-0.03 0,-0.04 0,-0.05 0,-0.06 0,-0.12 0.02,-0.18 0.02,-0.06 0.04,-0.12 0.06,-0.17 0.03,-0.06 0.06,-0.11 0.1,-0.17 0.03,-0.05 0.07,-0.09 0.11,-0.14 0.02,-0.02 0.05,-0.04 0.08,-0.07 0.03,-0.03 0.06,-0.05 0.1,-0.07 0.03,-0.03 0.06,-0.04 0.1,-0.06 0.04,-0.01 0.07,-0.02 0.11,-0.02 0.03,0 0.05,0 0.07,0.01 0.02,0.01 0.03,0.02 0.04,0.03 0.01,0.02 0.02,0.03 0.02,0.04 0.01,0.02 0.01,0.03 0.01,0.04l0.05 -0.1 0.23 0 -0.22 0.54c-0.02,0.05 -0.04,0.1 -0.06,0.15 -0.02,0.05 -0.04,0.11 -0.06,0.16 -0.02,0.05 -0.04,0.09 -0.05,0.13 -0.01,0.03 -0.01,0.06 -0.01,0.09 0,0 0,0.01 0,0.03 0.01,0.02 0.02,0.03 0.04,0.03 0.02,0 0.04,-0.01 0.06,-0.03 0.02,-0.02 0.04,-0.05 0.06,-0.08 0.02,-0.03 0.03,-0.05 0.04,-0.07 0.01,-0.02 0.02,-0.05 0.03,-0.08l0.01 -0.03c0.01,-0.01 0.01,-0.03 0.02,-0.04 0.01,-0.01 0.02,-0.02 0.03,-0.02 0.01,0 0.02,0.01 0.02,0.01 0,0.01 0.01,0.02 0.01,0.02 0,0.01 -0.01,0.03 -0.02,0.05 -0.01,0.02 -0.02,0.04 -0.03,0.07 -0.01,0.02 -0.02,0.04 -0.03,0.06 -0.01,0.02 -0.02,0.03 -0.02,0.04 -0.04,0.05 -0.07,0.09 -0.1,0.11 -0.03,0.02 -0.06,0.04 -0.09,0.04 -0.02,0 -0.04,-0.01 -0.05,-0.01 -0.01,-0.01 -0.02,-0.01 -0.02,-0.02 -0.02,-0.01 -0.04,-0.04 -0.06,-0.07 -0.02,-0.03 -0.03,-0.08 -0.03,-0.13 0,-0.03 0,-0.07 0.01,-0.11 0,-0.04 0.02,-0.1 0.03,-0.16l-0.01 0.03zm2.96 -0.08c0.01,-0.02 0.03,-0.05 0.05,-0.1 0.02,-0.04 0.04,-0.09 0.06,-0.14 0.02,-0.05 0.04,-0.1 0.06,-0.15 0.01,-0.05 0.02,-0.09 0.02,-0.11 0,-0.02 -0.01,-0.04 -0.02,-0.06 -0.01,-0.01 -0.03,-0.02 -0.05,-0.02 -0.01,0 -0.03,0.01 -0.04,0.02 -0.02,0.01 -0.03,0.02 -0.05,0.04 -0.03,0.04 -0.07,0.1 -0.12,0.18 -0.05,0.09 -0.1,0.19 -0.16,0.3 -0.03,0.05 -0.05,0.11 -0.08,0.17 -0.03,0.06 -0.05,0.11 -0.08,0.17 0,0.01 0,0.02 -0.01,0.05 -0.01,0.03 -0.02,0.05 -0.02,0.08 0,0.02 0.01,0.04 0.02,0.05 0.01,0.01 0.02,0.01 0.03,0.01 0.02,0 0.04,-0.01 0.05,-0.02 0.02,-0.02 0.04,-0.03 0.06,-0.06 0.02,-0.02 0.05,-0.05 0.07,-0.08 0.03,-0.04 0.05,-0.08 0.08,-0.11 0.02,-0.04 0.05,-0.08 0.07,-0.12 0.02,-0.04 0.04,-0.07 0.06,-0.1zm0.01 0.08c-0.02,0.03 -0.04,0.07 -0.06,0.1 -0.02,0.04 -0.04,0.08 -0.07,0.11 -0.02,0.04 -0.05,0.07 -0.07,0.11 -0.03,0.03 -0.06,0.06 -0.09,0.09 0,0 -0.02,0.01 -0.04,0.03 -0.02,0.02 -0.05,0.03 -0.08,0.03 -0.01,0 -0.02,-0.01 -0.03,-0.01 -0.01,0 -0.02,-0.01 -0.04,-0.02 -0.03,-0.01 -0.05,-0.04 -0.07,-0.07 -0.01,-0.03 -0.03,-0.06 -0.03,-0.09 -0.01,-0.03 -0.01,-0.06 -0.02,-0.08 0,-0.03 0,-0.04 0,-0.05 0,-0.06 0.01,-0.12 0.03,-0.18 0.01,-0.06 0.03,-0.12 0.06,-0.17 0.03,-0.06 0.06,-0.11 0.09,-0.17 0.04,-0.05 0.08,-0.09 0.12,-0.14 0.02,-0.02 0.04,-0.04 0.08,-0.07 0.03,-0.03 0.06,-0.05 0.09,-0.07 0.04,-0.03 0.07,-0.04 0.11,-0.06 0.03,-0.01 0.07,-0.02 0.1,-0.02 0.03,0 0.06,0 0.08,0.01 0.01,0.01 0.03,0.02 0.04,0.03 0.01,0.02 0.01,0.03 0.02,0.04 0,0.02 0.01,0.03 0.01,0.04l0.05 -0.1 0.23 0 -0.22 0.54c-0.02,0.05 -0.04,0.1 -0.06,0.15 -0.02,0.05 -0.04,0.11 -0.06,0.16 -0.02,0.05 -0.04,0.09 -0.05,0.13 -0.01,0.03 -0.02,0.06 -0.02,0.09 0,0 0,0.01 0.01,0.03 0,0.02 0.02,0.03 0.04,0.03 0.01,0 0.03,-0.01 0.05,-0.03 0.02,-0.02 0.04,-0.05 0.07,-0.08 0.01,-0.03 0.02,-0.05 0.03,-0.07 0.01,-0.02 0.03,-0.05 0.04,-0.08l0.01 -0.03c0,-0.01 0.01,-0.03 0.02,-0.04 0,-0.01 0.01,-0.02 0.03,-0.02 0.01,0 0.01,0.01 0.02,0.01 0,0.01 0,0.02 0,0.02 0,0.01 0,0.03 -0.01,0.05 -0.01,0.02 -0.02,0.04 -0.03,0.07 -0.01,0.02 -0.02,0.04 -0.03,0.06 -0.01,0.02 -0.02,0.03 -0.03,0.04 -0.03,0.05 -0.06,0.09 -0.09,0.11 -0.03,0.02 -0.07,0.04 -0.1,0.04 -0.01,0 -0.03,-0.01 -0.04,-0.01 -0.01,-0.01 -0.02,-0.01 -0.03,-0.02 -0.02,-0.01 -0.04,-0.04 -0.06,-0.07 -0.02,-0.03 -0.03,-0.08 -0.03,-0.13 0,-0.03 0.01,-0.07 0.01,-0.11 0.01,-0.04 0.02,-0.1 0.04,-0.16l-0.02 0.03zm0.61 0.24c-0.01,0 -0.01,0 -0.02,0 0,-0.01 -0.01,-0.01 -0.01,-0.01 -0.01,0 -0.02,0.01 -0.02,0.01 0,0.01 0,0.02 0,0.03 0,0.04 0.02,0.07 0.06,0.11 0.04,0.03 0.11,0.04 0.19,0.04 0.05,0 0.09,-0.01 0.12,-0.02 0.03,-0.02 0.05,-0.04 0.07,-0.06 0.02,-0.02 0.03,-0.05 0.04,-0.07 0,-0.03 0.01,-0.05 0.01,-0.07 0,-0.03 -0.01,-0.07 -0.03,-0.1 -0.02,-0.03 -0.06,-0.06 -0.11,-0.11l-0.1 -0.09c-0.04,-0.04 -0.07,-0.08 -0.1,-0.11 -0.02,-0.04 -0.03,-0.08 -0.03,-0.14 0,-0.01 0,-0.04 0,-0.06 0.01,-0.03 0.02,-0.06 0.03,-0.1 0.01,-0.02 0.02,-0.04 0.04,-0.07 0.02,-0.02 0.05,-0.05 0.08,-0.07 0.03,-0.03 0.07,-0.05 0.12,-0.06 0.04,-0.02 0.09,-0.03 0.16,-0.03 0.05,0 0.1,0.01 0.14,0.02 0.04,0.02 0.07,0.04 0.09,0.06 0.03,0.02 0.05,0.05 0.06,0.08 0.01,0.02 0.01,0.05 0.01,0.07 0,0.01 0,0.01 0,0.02 0,0.01 0,0.03 -0.01,0.04 0,0 0,0.01 -0.01,0.03 0,0.01 -0.01,0.02 -0.02,0.03 -0.01,0.02 -0.03,0.03 -0.05,0.04 -0.02,0.01 -0.04,0.01 -0.07,0.01 -0.02,0 -0.05,0 -0.07,-0.01 -0.02,-0.01 -0.03,-0.02 -0.04,-0.04 -0.02,-0.01 -0.02,-0.02 -0.03,-0.04 0,-0.01 0,-0.02 0,-0.03 0,-0.03 0.01,-0.05 0.02,-0.07 0.02,-0.02 0.04,-0.03 0.07,-0.03 0.01,0 0.02,0 0.03,0 0,0.01 0.01,0.01 0.01,0.01 0.01,0 0.02,0.01 0.02,0.01 0.01,0 0.01,0.01 0.02,0.01 0.01,0 0.02,-0.01 0.02,-0.02 0,0 0.01,-0.01 0.01,-0.01 0,-0.03 -0.02,-0.06 -0.06,-0.09 -0.03,-0.03 -0.08,-0.04 -0.14,-0.04 -0.06,0 -0.11,0.02 -0.15,0.05 -0.05,0.03 -0.07,0.08 -0.07,0.15 0,0.04 0.01,0.08 0.03,0.11 0.02,0.03 0.05,0.06 0.08,0.09l0.08 0.07c0.01,0.01 0.02,0.02 0.03,0.03 0.01,0.01 0.02,0.02 0.03,0.03 0.04,0.04 0.07,0.07 0.08,0.1 0.02,0.04 0.03,0.08 0.03,0.13 0,0.03 0,0.06 -0.02,0.11 -0.01,0.05 -0.03,0.09 -0.06,0.13 -0.04,0.05 -0.08,0.09 -0.14,0.12 -0.06,0.03 -0.13,0.04 -0.22,0.04 -0.05,0 -0.1,-0.01 -0.16,-0.02 -0.06,-0.02 -0.11,-0.05 -0.14,-0.1 -0.01,-0.01 -0.02,-0.03 -0.04,-0.05 -0.01,-0.03 -0.02,-0.06 -0.02,-0.1 0,0 0.01,-0.01 0.01,-0.03 0,-0.01 0,-0.03 0.01,-0.04 0.01,-0.02 0.02,-0.03 0.03,-0.05 0.01,-0.02 0.03,-0.03 0.05,-0.04 0.01,0 0.02,-0.01 0.03,-0.01 0.01,-0.01 0.03,-0.01 0.05,-0.01 0.01,0 0.02,0 0.04,0 0.01,0.01 0.03,0.01 0.04,0.02 0.03,0.02 0.05,0.04 0.06,0.06 0,0.03 0.01,0.04 0.01,0.06 0,0.02 -0.01,0.04 -0.02,0.06 -0.02,0.02 -0.03,0.03 -0.04,0.03 -0.01,0.01 -0.02,0.02 -0.03,0.02 0,0 -0.01,0 -0.02,0 0,0 -0.01,0 -0.02,0 -0.01,-0.01 -0.02,-0.01 -0.03,-0.02l-0.01 -0.01z"/>
   <path class="fil2" d="M12.24 0.73c-0.03,0.02 -0.05,0.07 -0.11,0.16 -0.01,0.03 -0.08,0.12 -0.08,0.15 0.02,-0.02 0.2,-0.24 0.24,-0.3l0.03 -0.05c0.03,-0.02 0,-0.02 0.04,-0.03 0.05,0.05 0.05,0.27 0.05,0.34 0,0.03 -0.01,0.11 -0.02,0.14 -0.01,0.05 -0.04,0.06 -0.1,0.09l-0.51 0.29c0.04,0.01 0.35,-0.02 0.43,-0.03l0.04 0c0.02,0 0.01,0 0.02,0.01 0,0.05 -0.14,0.3 -0.18,0.35 -0.03,0.04 -0.06,0.03 -0.11,0.03l-0.24 0.01c-0.04,0 -0.09,0 -0.12,0.01 0.02,0.01 0.05,0.01 0.08,0.01l0.2 0.03c0.03,0.01 0.08,0.01 0.11,0.01 0,0.04 -0.08,0.12 -0.1,0.16 -0.03,0.02 -0.04,0.04 -0.07,0.07l-0.29 0.27c-0.01,0.01 -0.01,0 -0.02,0.01 -0.07,0.05 -0.1,0.09 -0.2,0.14 -0.1,0.06 -0.05,0.07 -0.19,0.06l-0.23 0c-0.07,-0.01 -0.14,-0.02 -0.23,-0.01 0.01,0 0.01,0 0.01,0l0.01 0.01c0.01,0.01 0.01,0.01 0.02,0.01l0.2 0.09c0.02,0.01 0.07,0.02 0.08,0.04 -0.01,0.03 -0.04,0.03 -0.09,0.06 -0.04,0.02 -0.08,0.04 -0.12,0.05 -0.04,0.02 -0.07,0.04 -0.11,0.05l-0.23 0.1c-0.04,0.01 -0.07,0.04 -0.12,0.02 -0.03,-0.01 -0.19,-0.07 -0.21,-0.07 -0.01,-0.02 -0.11,-0.06 -0.15,-0.06 0.01,0.03 0.03,0.04 0.04,0.05l0.05 0.05c0.02,0.02 0.08,0.07 0.1,0.09 -0.07,0.02 -0.05,-0.01 -0.1,-0.02 -0.11,-0.05 -0.18,-0.14 -0.24,-0.12 -0.11,0.04 -0.06,0.02 -0.09,0.04 -0.04,0.02 -0.43,0.11 -0.46,0.12 -0.01,-0.03 0.01,-0.04 0.02,-0.07 0.09,-0.03 0.48,-0.17 0.53,-0.21l0.15 -0.07c0.07,-0.04 0.39,-0.23 0.44,-0.27 0.01,-0.01 0.03,-0.02 0.05,-0.04 0.2,-0.13 0.37,-0.28 0.54,-0.44 0.17,-0.17 0.21,-0.23 0.36,-0.4 0.03,-0.03 0.15,-0.18 0.15,-0.22 -0.03,0.01 -0.06,0.06 -0.09,0.1 -0.16,0.19 -0.28,0.31 -0.46,0.47 -0.06,0.06 -0.14,0.11 -0.2,0.17 -0.08,0.08 -0.36,0.27 -0.44,0.32 -0.05,0.03 -0.45,0.27 -0.5,0.28l-0.01 -0.03c0.03,-0.04 0.02,-0.04 0.04,-0.07 0.03,-0.07 0.04,-0.12 0.06,-0.18l0.04 -0.08c0.02,0.02 -0.01,0.09 0,0.14 0.02,-0.02 0.12,-0.22 0.15,-0.26 0.03,-0.05 0.03,-0.06 0.06,-0.08 0.01,0.07 -0.04,0.13 -0.03,0.21 0.04,-0.05 0.19,-0.34 0.24,-0.41 0,0 0.42,-0.42 0.52,-0.55 0.05,-0.06 0.08,-0.09 0.12,-0.15l0.05 -0.05c0.02,-0.02 -0.01,-0.01 0.03,-0.02 0.01,0.07 -0.02,0.21 -0.01,0.27 0.01,-0.01 0.07,-0.19 0.08,-0.22l0.15 -0.46c0.09,-0.18 0.32,-0.41 0.57,-0.45 0.23,-0.03 0.44,0.13 0.44,0.2 -0.01,0.02 -0.08,0.12 -0.08,0.14z"/>
  </g>
 </g>
</svg>
